<?xml version="1.0" standalone="no"?>
<!DOCTYPE svg PUBLIC "-//W3C//DTD SVG 20010904//EN"
 "http://www.w3.org/TR/2001/REC-SVG-20010904/DTD/svg10.dtd">
<svg version="1.0" xmlns="http://www.w3.org/2000/svg"
 width="836.000000pt" height="149.000000pt" viewBox="0 0 836.000000 149.000000"
 preserveAspectRatio="xMidYMid meet">

<g transform="translate(0.000000,149.000000) scale(0.100000,-0.100000)"
fill="#000000" stroke="none">
<path d="M550 1254 c-153 -40 -303 -161 -368 -296 -109 -223 -67 -472 108
-649 110 -111 239 -164 400 -164 116 1 209 27 295 83 161 105 251 259 262 447
19 328 -237 596 -567 594 -41 0 -100 -7 -130 -15z m365 -250 c32 -13 45 -59
45 -167 0 -89 -3 -108 -19 -128 -20 -24 -19 -24 7 -52 24 -26 27 -36 27 -104
0 -70 -2 -76 -28 -99 -27 -23 -35 -24 -155 -24 l-128 0 -9 -32 c-11 -35 -57
-74 -74 -64 -7 5 -11 60 -11 162 l0 154 -90 0 c-94 0 -104 6 -70 40 16 16 33
20 90 20 l70 0 0 120 0 120 -120 0 c-73 0 -120 4 -120 10 0 6 9 19 20 30 19
19 33 20 284 20 145 0 272 -3 281 -6z"/>
<path d="M710 830 l0 -120 80 0 80 0 0 120 0 120 -80 0 -80 0 0 -120z"/>
<path d="M710 575 l0 -75 90 0 90 0 0 75 0 75 -90 0 -90 0 0 -75z"/>
<path d="M2285 986 c-94 -35 -110 -86 -103 -330 3 -128 6 -148 24 -173 41 -55
78 -68 194 -68 116 0 153 13 194 68 20 27 21 41 21 222 0 181 -1 195 -21 222
-38 51 -79 67 -179 70 -61 2 -103 -1 -130 -11z m219 -50 c62 -26 66 -41 66
-232 0 -194 -7 -214 -78 -234 -49 -13 -148 -12 -192 3 -62 21 -71 55 -68 248
3 181 6 190 63 215 40 18 167 18 209 0z"/>
<path d="M3010 989 c-46 -14 -88 -55 -101 -99 -6 -21 -9 -105 -7 -207 3 -191
8 -206 79 -248 50 -29 228 -29 279 0 68 40 75 66 75 277 0 174 -1 188 -21 215
-38 51 -79 67 -179 70 -49 1 -106 -2 -125 -8z m215 -53 c56 -24 65 -54 65
-228 0 -219 -18 -246 -165 -247 -79 -1 -130 14 -155 46 -18 24 -20 40 -20 197
0 190 4 206 64 232 41 18 168 18 211 0z"/>
<path d="M1600 705 l0 -285 25 0 25 0 0 115 0 115 110 0 110 0 0 25 0 25 -110
0 -110 0 0 120 0 120 150 0 150 0 0 25 0 25 -175 0 -175 0 0 -285z"/>
<path d="M3632 708 l3 -283 165 0 c153 0 168 2 201 22 55 34 59 53 59 259 0
275 -2 277 -263 282 l-167 4 2 -284z m327 221 c17 -6 36 -19 41 -29 13 -25 13
-366 0 -390 -15 -29 -72 -40 -202 -40 l-118 0 0 235 0 235 124 0 c67 0 137 -5
155 -11z"/>
<path d="M4360 705 l0 -285 153 0 c169 1 220 9 251 40 18 18 21 32 21 114 0
86 -2 97 -24 120 -14 14 -31 26 -38 26 -11 0 -12 9 -6 38 13 60 7 149 -12 178
-28 43 -71 54 -215 54 l-130 0 0 -285z m291 216 c21 -17 24 -28 24 -84 0 -94
-4 -97 -146 -97 l-119 0 0 100 0 100 109 0 c92 0 112 -3 132 -19z m70 -260
c14 -17 19 -39 19 -85 0 -33 -4 -66 -8 -73 -15 -24 -67 -33 -193 -33 l-129 0
0 111 0 112 146 -5 c138 -4 148 -6 165 -27z"/>
<path d="M5060 757 c0 -262 5 -285 73 -320 82 -42 261 -30 309 21 46 49 48 59
48 301 l0 231 -25 0 -25 0 0 -229 c0 -215 -1 -230 -20 -254 -50 -64 -240 -64
-290 0 -19 24 -20 39 -20 254 l0 229 -25 0 -25 0 0 -233z"/>
<path d="M5790 705 l0 -287 163 4 c261 6 267 12 267 283 0 272 -6 278 -262
283 l-168 4 0 -287z m356 202 c24 -28 24 -31 22 -209 l-3 -181 -28 -21 c-25
-18 -45 -21 -163 -24 l-134 -4 0 237 0 237 141 -4 c140 -3 141 -3 165 -31z"/>
<path d="M6585 975 c-22 -8 -41 -15 -42 -15 -1 0 -9 -13 -18 -30 -22 -43 -22
-415 1 -448 32 -46 69 -55 232 -60 l152 -4 0 121 c0 121 0 122 -22 119 -22 -3
-23 -8 -26 -95 l-3 -93 -97 0 c-112 1 -171 12 -189 36 -10 13 -13 69 -13 204
0 237 -11 224 176 228 l134 4 0 24 0 24 -122 0 c-81 -1 -137 -6 -163 -15z"/>
<path d="M7210 705 l0 -285 180 0 180 0 0 25 0 25 -155 0 -155 0 0 110 0 110
115 0 115 0 0 25 0 25 -115 0 -115 0 0 100 0 100 155 0 155 0 0 25 0 25 -180
0 -180 0 0 -285z"/>
<path d="M7787 983 c-4 -3 -7 -15 -7 -25 0 -16 10 -18 100 -18 l100 0 2 -257
3 -258 23 -3 22 -3 0 260 0 261 100 0 100 0 0 25 0 25 -218 0 c-120 0 -222 -3
-225 -7z"/>
</g>
</svg>
